<svg xmlns="http://www.w3.org/2000/svg" xmlns:xlink="http://www.w3.org/1999/xlink" width="200" zoomAndPan="magnify" viewBox="0 0 150 52.499999" height="70" preserveAspectRatio="xMidYMid meet" version="1.0"><defs><g/></defs><g fill="#251d3c" fill-opacity="1"><g transform="translate(18.851158, 37.146224)"><g><path d="M 3.5625 0.203125 C 3.40625 0.203125 3.257812 0.09375 3.125 -0.125 C 3 -0.4375 2.9375 -0.722656 2.9375 -0.984375 C 2.9375 -1.117188 2.941406 -1.265625 2.953125 -1.421875 C 2.960938 -1.578125 2.984375 -1.722656 3.015625 -1.859375 C 3.140625 -2.628906 3.269531 -3.390625 3.40625 -4.140625 C 3.539062 -4.890625 3.695312 -5.648438 3.875 -6.421875 L 5.0625 -11.59375 C 5.28125 -12.550781 5.519531 -13.507812 5.78125 -14.46875 C 6.039062 -15.4375 6.316406 -16.394531 6.609375 -17.34375 C 6.765625 -17.925781 6.914062 -18.503906 7.0625 -19.078125 C 7.207031 -19.660156 7.347656 -20.253906 7.484375 -20.859375 C 7.503906 -20.890625 7.515625 -20.957031 7.515625 -21.0625 C 7.515625 -21.144531 7.53125 -21.195312 7.5625 -21.21875 C 7.5625 -21.351562 7.492188 -21.421875 7.359375 -21.421875 C 7.285156 -21.390625 7.179688 -21.375 7.046875 -21.375 C 6.992188 -21.375 6.941406 -21.367188 6.890625 -21.359375 C 6.835938 -21.347656 6.785156 -21.328125 6.734375 -21.296875 C 6.234375 -21.171875 5.71875 -21.0625 5.1875 -20.96875 C 4.65625 -20.875 4.128906 -20.828125 3.609375 -20.828125 C 3.285156 -20.828125 2.878906 -20.878906 2.390625 -20.984375 C 1.898438 -21.085938 1.425781 -21.234375 0.96875 -21.421875 C 0.507812 -21.609375 0.160156 -21.832031 -0.078125 -22.09375 C -0.523438 -22.488281 -0.679688 -22.988281 -0.546875 -23.59375 C -0.492188 -23.8125 -0.398438 -24.097656 -0.265625 -24.453125 C -0.140625 -24.804688 0.0664062 -24.984375 0.359375 -24.984375 C 0.484375 -24.984375 0.5625 -24.96875 0.59375 -24.9375 L 0.875 -24.828125 C 0.976562 -24.742188 1.03125 -24.640625 1.03125 -24.515625 C 1.03125 -24.378906 1.019531 -24.257812 1 -24.15625 C 0.988281 -24.050781 0.972656 -23.929688 0.953125 -23.796875 C 0.921875 -23.660156 0.898438 -23.53125 0.890625 -23.40625 C 0.878906 -23.289062 0.875 -23.171875 0.875 -23.046875 C 0.875 -22.359375 1.203125 -21.972656 1.859375 -21.890625 C 1.960938 -21.867188 2.050781 -21.847656 2.125 -21.828125 C 2.207031 -21.816406 2.304688 -21.8125 2.421875 -21.8125 L 3.203125 -21.8125 C 3.523438 -21.8125 3.875 -21.835938 4.25 -21.890625 C 4.632812 -21.941406 5.015625 -22.007812 5.390625 -22.09375 L 7.640625 -22.6875 C 7.953125 -22.820312 8.148438 -22.992188 8.234375 -23.203125 C 8.234375 -23.253906 8.25 -23.28125 8.28125 -23.28125 C 8.40625 -23.59375 8.578125 -23.75 8.796875 -23.75 C 8.921875 -23.75 9.0625 -23.710938 9.21875 -23.640625 L 9.46875 -23.4375 C 9.570312 -23.332031 9.703125 -23.28125 9.859375 -23.28125 C 9.910156 -23.28125 9.953125 -23.296875 9.984375 -23.328125 C 9.984375 -23.328125 9.988281 -23.328125 10 -23.328125 C 10.007812 -23.328125 10.03125 -23.328125 10.0625 -23.328125 L 12.03125 -23.875 C 12.25 -23.925781 12.457031 -23.984375 12.65625 -24.046875 C 12.851562 -24.117188 13.039062 -24.179688 13.21875 -24.234375 C 13.40625 -24.285156 13.59375 -24.335938 13.78125 -24.390625 C 13.96875 -24.441406 14.148438 -24.492188 14.328125 -24.546875 C 14.804688 -24.679688 15.273438 -24.800781 15.734375 -24.90625 C 16.203125 -25.007812 16.6875 -25.0625 17.1875 -25.0625 C 17.289062 -25.0625 17.390625 -25.0625 17.484375 -25.0625 C 17.578125 -25.0625 17.675781 -25.0625 17.78125 -25.0625 C 17.882812 -25.0625 17.984375 -25.0625 18.078125 -25.0625 C 18.171875 -25.0625 18.269531 -25.046875 18.375 -25.015625 C 18.976562 -24.941406 19.503906 -24.691406 19.953125 -24.265625 C 20.242188 -23.972656 20.296875 -23.671875 20.109375 -23.359375 C 20.085938 -23.304688 20.0625 -23.257812 20.03125 -23.21875 C 20.007812 -23.175781 19.984375 -23.128906 19.953125 -23.078125 C 19.929688 -23.023438 19.898438 -22.976562 19.859375 -22.9375 C 19.816406 -22.90625 19.78125 -22.863281 19.75 -22.8125 C 19.644531 -22.695312 19.515625 -22.640625 19.359375 -22.640625 C 19.015625 -22.640625 18.78125 -22.785156 18.65625 -23.078125 C 18.59375 -23.128906 18.59375 -23.179688 18.65625 -23.234375 C 18.65625 -23.265625 18.65625 -23.285156 18.65625 -23.296875 C 18.65625 -23.316406 18.65625 -23.335938 18.65625 -23.359375 L 18.765625 -23.796875 C 18.765625 -23.898438 18.710938 -23.96875 18.609375 -24 C 18.554688 -24.019531 18.4375 -24.03125 18.25 -24.03125 C 17.832031 -24.007812 17.425781 -23.976562 17.03125 -23.9375 C 16.632812 -23.894531 16.238281 -23.804688 15.84375 -23.671875 L 11.71875 -22.609375 C 11.582031 -22.578125 11.441406 -22.539062 11.296875 -22.5 C 11.160156 -22.46875 11.023438 -22.425781 10.890625 -22.375 C 10.753906 -22.34375 10.609375 -22.304688 10.453125 -22.265625 C 10.296875 -22.234375 10.148438 -22.203125 10.015625 -22.171875 C 9.648438 -22.085938 9.453125 -21.875 9.421875 -21.53125 C 9.285156 -20.664062 9.125 -19.800781 8.9375 -18.9375 C 8.757812 -18.082031 8.550781 -17.234375 8.3125 -16.390625 C 7.894531 -15.015625 7.519531 -13.644531 7.1875 -12.28125 C 6.851562 -10.925781 6.539062 -9.550781 6.25 -8.15625 L 5.421875 -4.4375 C 5.367188 -4.226562 5.320312 -4.003906 5.28125 -3.765625 C 5.238281 -3.523438 5.191406 -3.300781 5.140625 -3.09375 C 5.117188 -2.851562 5.085938 -2.613281 5.046875 -2.375 C 5.003906 -2.132812 4.957031 -1.910156 4.90625 -1.703125 C 4.851562 -1.460938 4.789062 -1.21875 4.71875 -0.96875 C 4.65625 -0.71875 4.5625 -0.488281 4.4375 -0.28125 C 4.25 -0.0078125 3.957031 0.148438 3.5625 0.203125 Z M 3.5625 0.203125 "/></g></g></g><g fill="#251d3c" fill-opacity="1"><g transform="translate(28.750035, 37.146224)"><g><path d="M 3.4375 -3.921875 C 3.382812 -3.941406 3.316406 -3.953125 3.234375 -3.953125 C 3.160156 -3.953125 3.097656 -3.96875 3.046875 -4 C 2.835938 -4.050781 2.691406 -4.09375 2.609375 -4.125 C 1.109375 -4.675781 0.265625 -5.753906 0.078125 -7.359375 C 0.078125 -7.390625 0.078125 -7.421875 0.078125 -7.453125 C 0.078125 -7.492188 0.078125 -7.53125 0.078125 -7.5625 C 0.0546875 -7.59375 0.046875 -7.644531 0.046875 -7.71875 L 0.046875 -8.109375 C 0.0976562 -8.847656 0.234375 -9.632812 0.453125 -10.46875 C 0.679688 -11.300781 1 -12.09375 1.40625 -12.84375 C 1.8125 -13.601562 2.304688 -14.207031 2.890625 -14.65625 C 3.179688 -14.882812 3.5 -15 3.84375 -15 C 4.082031 -15 4.289062 -14.960938 4.46875 -14.890625 C 4.519531 -14.890625 4.546875 -14.875 4.546875 -14.84375 C 4.734375 -14.789062 4.75 -14.6875 4.59375 -14.53125 C 3.644531 -13.6875 2.957031 -12.671875 2.53125 -11.484375 C 2.113281 -10.296875 1.878906 -9.082031 1.828125 -7.84375 C 1.765625 -7 1.90625 -6.285156 2.25 -5.703125 C 2.4375 -5.378906 2.648438 -5.113281 2.890625 -4.90625 C 2.992188 -4.800781 3.113281 -4.75 3.25 -4.75 C 3.351562 -4.75 3.457031 -4.789062 3.5625 -4.875 C 3.769531 -4.976562 3.984375 -5.203125 4.203125 -5.546875 C 4.253906 -5.617188 4.296875 -5.695312 4.328125 -5.78125 C 4.367188 -5.863281 4.414062 -5.941406 4.46875 -6.015625 C 4.519531 -6.097656 4.554688 -6.175781 4.578125 -6.25 C 4.609375 -6.332031 4.640625 -6.425781 4.671875 -6.53125 C 4.878906 -7.269531 4.953125 -7.972656 4.890625 -8.640625 C 4.828125 -9.316406 4.582031 -9.988281 4.15625 -10.65625 C 4.050781 -10.8125 3.945312 -10.972656 3.84375 -11.140625 C 3.738281 -11.316406 3.632812 -11.5 3.53125 -11.6875 C 3.46875 -11.757812 3.453125 -11.84375 3.484375 -11.9375 C 3.515625 -12.03125 3.582031 -12.085938 3.6875 -12.109375 C 3.738281 -12.242188 4.09375 -12.351562 4.75 -12.4375 C 5.0625 -12.457031 5.398438 -12.472656 5.765625 -12.484375 C 6.140625 -12.503906 6.539062 -12.515625 6.96875 -12.515625 C 7.363281 -12.515625 7.769531 -12.503906 8.1875 -12.484375 C 8.613281 -12.472656 9.023438 -12.457031 9.421875 -12.4375 C 9.734375 -12.351562 9.945312 -12.234375 10.0625 -12.078125 C 10.1875 -11.890625 10.144531 -11.769531 9.9375 -11.71875 C 9.59375 -11.71875 9.257812 -11.71875 8.9375 -11.71875 C 8.625 -11.71875 8.335938 -11.734375 8.078125 -11.765625 C 7.816406 -11.765625 7.554688 -11.765625 7.296875 -11.765625 C 7.046875 -11.765625 6.816406 -11.765625 6.609375 -11.765625 C 6.265625 -11.765625 5.960938 -11.753906 5.703125 -11.734375 C 5.441406 -11.722656 5.175781 -11.707031 4.90625 -11.6875 C 4.75 -11.601562 4.710938 -11.484375 4.796875 -11.328125 C 4.921875 -11.085938 5.09375 -10.820312 5.3125 -10.53125 C 5.78125 -9.769531 6.054688 -8.953125 6.140625 -8.078125 C 6.191406 -6.941406 5.976562 -5.925781 5.5 -5.03125 C 5.476562 -4.925781 5.414062 -4.820312 5.3125 -4.71875 C 5.070312 -4.34375 4.804688 -4.113281 4.515625 -4.03125 C 4.222656 -3.957031 3.863281 -3.921875 3.4375 -3.921875 Z M 3.4375 -3.921875 "/></g></g></g><g fill="#251d3c" fill-opacity="1"><g transform="translate(36.86711, 37.146224)"><g><path d="M 5.734375 -4.546875 C 5.128906 -4.546875 4.679688 -4.8125 4.390625 -5.34375 C 4.335938 -5.53125 4.289062 -5.695312 4.25 -5.84375 C 4.21875 -5.988281 4.203125 -6.125 4.203125 -6.25 C 4.203125 -6.382812 4.203125 -6.523438 4.203125 -6.671875 C 4.203125 -6.816406 4.203125 -6.957031 4.203125 -7.09375 C 4.203125 -7.21875 4.207031 -7.335938 4.21875 -7.453125 C 4.226562 -7.578125 4.25 -7.707031 4.28125 -7.84375 L 4.3125 -8.109375 C 4.34375 -8.171875 4.359375 -8.265625 4.359375 -8.390625 C 4.359375 -8.441406 4.332031 -8.492188 4.28125 -8.546875 C 4.195312 -8.578125 4.128906 -8.550781 4.078125 -8.46875 C 4.046875 -8.414062 4.015625 -8.367188 3.984375 -8.328125 C 3.960938 -8.296875 3.941406 -8.253906 3.921875 -8.203125 C 3.835938 -8.085938 3.765625 -7.976562 3.703125 -7.875 C 3.640625 -7.769531 3.582031 -7.664062 3.53125 -7.5625 L 2.34375 -5.65625 L 1.90625 -5.0625 C 1.6875 -4.851562 1.429688 -4.75 1.140625 -4.75 C 0.859375 -4.75 0.597656 -4.828125 0.359375 -4.984375 C 0.117188 -5.117188 -0.0507812 -5.332031 -0.15625 -5.625 C -0.207031 -5.8125 -0.238281 -6.003906 -0.25 -6.203125 C -0.269531 -6.398438 -0.265625 -6.628906 -0.234375 -6.890625 C -0.109375 -7.867188 0.0507812 -8.804688 0.25 -9.703125 C 0.445312 -10.597656 0.71875 -11.507812 1.0625 -12.4375 L 1.421875 -13.1875 C 1.503906 -13.3125 1.601562 -13.378906 1.71875 -13.390625 C 1.84375 -13.410156 1.96875 -13.421875 2.09375 -13.421875 L 2.34375 -13.296875 C 2.550781 -13.222656 2.65625 -13.082031 2.65625 -12.875 C 2.625 -12.8125 2.609375 -12.738281 2.609375 -12.65625 C 2.609375 -12.582031 2.609375 -12.519531 2.609375 -12.46875 C 2.609375 -12.34375 2.582031 -12.195312 2.53125 -12.03125 C 2.507812 -11.820312 2.472656 -11.597656 2.421875 -11.359375 C 2.367188 -11.117188 2.3125 -10.894531 2.25 -10.6875 C 2.195312 -10.445312 2.148438 -10.207031 2.109375 -9.96875 C 2.078125 -9.738281 2.035156 -9.515625 1.984375 -9.296875 C 1.953125 -9.117188 1.921875 -8.941406 1.890625 -8.765625 C 1.867188 -8.597656 1.847656 -8.421875 1.828125 -8.234375 C 1.796875 -8.046875 1.765625 -7.875 1.734375 -7.71875 C 1.710938 -7.5625 1.6875 -7.390625 1.65625 -7.203125 C 1.632812 -7.179688 1.648438 -7.050781 1.703125 -6.8125 L 1.734375 -6.765625 C 1.765625 -6.765625 1.785156 -6.765625 1.796875 -6.765625 C 1.816406 -6.765625 1.828125 -6.765625 1.828125 -6.765625 C 2.035156 -6.898438 2.269531 -7.175781 2.53125 -7.59375 C 2.800781 -8.019531 3.050781 -8.457031 3.28125 -8.90625 C 3.519531 -9.351562 3.691406 -9.679688 3.796875 -9.890625 L 4.75 -11.59375 C 4.800781 -11.726562 4.863281 -11.84375 4.9375 -11.9375 C 5.019531 -12.03125 5.085938 -12.128906 5.140625 -12.234375 C 5.328125 -12.492188 5.539062 -12.625 5.78125 -12.625 C 5.914062 -12.625 6.070312 -12.570312 6.25 -12.46875 C 6.4375 -12.394531 6.53125 -12.273438 6.53125 -12.109375 C 6.5625 -12.054688 6.578125 -11.988281 6.578125 -11.90625 C 6.578125 -11.832031 6.578125 -11.769531 6.578125 -11.71875 C 6.578125 -11.664062 6.578125 -11.597656 6.578125 -11.515625 C 6.578125 -11.441406 6.578125 -11.363281 6.578125 -11.28125 C 6.523438 -10.914062 6.46875 -10.523438 6.40625 -10.109375 C 6.351562 -9.703125 6.300781 -9.289062 6.25 -8.875 L 6.015625 -6.921875 L 6.015625 -6.375 C 6.015625 -6.320312 6.066406 -6.28125 6.171875 -6.25 C 6.203125 -6.28125 6.226562 -6.296875 6.25 -6.296875 L 6.53125 -6.65625 C 7.0625 -7.5 7.578125 -8.351562 8.078125 -9.21875 C 8.578125 -10.09375 9.078125 -10.976562 9.578125 -11.875 C 9.679688 -12.0625 9.867188 -12.15625 10.140625 -12.15625 C 10.429688 -12.101562 10.519531 -11.945312 10.40625 -11.6875 L 10.09375 -11 C 9.5625 -10.082031 9.046875 -9.179688 8.546875 -8.296875 C 8.046875 -7.410156 7.546875 -6.503906 7.046875 -5.578125 C 7.023438 -5.503906 6.921875 -5.347656 6.734375 -5.109375 C 6.523438 -4.734375 6.191406 -4.546875 5.734375 -4.546875 Z M 5.734375 -4.546875 "/></g></g></g><g fill="#251d3c" fill-opacity="1"><g transform="translate(45.340549, 37.146224)"><g><path d="M 1.46875 -3.796875 C 1.226562 -3.828125 1 -3.867188 0.78125 -3.921875 C 0.570312 -3.972656 0.363281 -4.066406 0.15625 -4.203125 C -0.0820312 -4.410156 -0.238281 -4.632812 -0.3125 -4.875 C -0.445312 -5.21875 -0.523438 -5.5625 -0.546875 -5.90625 C -0.578125 -6.25 -0.59375 -6.644531 -0.59375 -7.09375 C -0.507812 -8.164062 -0.3125 -9.3125 0 -10.53125 C 0.3125 -11.75 0.757812 -12.910156 1.34375 -14.015625 C 1.925781 -15.117188 2.625 -16.03125 3.4375 -16.75 C 3.8125 -17.039062 4.179688 -17.1875 4.546875 -17.1875 C 5.023438 -17.1875 5.488281 -17 5.9375 -16.625 C 6.175781 -16.46875 6.296875 -16.234375 6.296875 -15.921875 C 6.378906 -14.804688 6.15625 -13.789062 5.625 -12.875 C 5.488281 -12.65625 5.316406 -12.546875 5.109375 -12.546875 C 5.078125 -12.546875 5.050781 -12.5625 5.03125 -12.59375 C 5 -12.59375 4.976562 -12.59375 4.96875 -12.59375 C 4.957031 -12.59375 4.9375 -12.59375 4.90625 -12.59375 C 4.71875 -12.613281 4.65625 -12.707031 4.71875 -12.875 L 4.953125 -13.578125 C 5.191406 -14.367188 5.296875 -15.109375 5.265625 -15.796875 C 5.265625 -15.929688 5.25 -16.023438 5.21875 -16.078125 C 5.21875 -16.179688 5.15625 -16.234375 5.03125 -16.234375 C 5 -16.234375 4.972656 -16.21875 4.953125 -16.1875 C 4.921875 -16.164062 4.890625 -16.144531 4.859375 -16.125 C 4.835938 -16.113281 4.816406 -16.097656 4.796875 -16.078125 C 4.742188 -16.046875 4.675781 -15.992188 4.59375 -15.921875 C 3.425781 -14.410156 2.601562 -12.898438 2.125 -11.390625 C 1.65625 -9.890625 1.328125 -8.203125 1.140625 -6.328125 C 1.117188 -6.066406 1.128906 -5.8125 1.171875 -5.5625 C 1.210938 -5.3125 1.257812 -5.054688 1.3125 -4.796875 C 1.332031 -4.679688 1.394531 -4.625 1.5 -4.625 C 1.550781 -4.625 1.59375 -4.640625 1.625 -4.671875 C 1.726562 -4.722656 1.816406 -4.773438 1.890625 -4.828125 C 1.972656 -4.878906 2.054688 -4.929688 2.140625 -4.984375 C 2.929688 -5.671875 3.5625 -6.359375 4.03125 -7.046875 C 4.5625 -7.703125 5.078125 -8.359375 5.578125 -9.015625 C 6.078125 -9.679688 6.582031 -10.359375 7.09375 -11.046875 L 8.03125 -12.1875 C 8.113281 -12.269531 8.222656 -12.3125 8.359375 -12.3125 C 8.515625 -12.3125 8.601562 -12.300781 8.625 -12.28125 C 8.789062 -12.21875 8.847656 -12.109375 8.796875 -11.953125 L 8.671875 -11.71875 C 8.640625 -11.664062 8.601562 -11.601562 8.5625 -11.53125 C 8.53125 -11.46875 8.488281 -11.410156 8.4375 -11.359375 C 8.40625 -11.304688 8.367188 -11.253906 8.328125 -11.203125 C 8.296875 -11.148438 8.253906 -11.097656 8.203125 -11.046875 L 4.953125 -6.734375 C 4.660156 -6.359375 4.375 -6.003906 4.09375 -5.671875 C 3.820312 -5.347656 3.523438 -5.039062 3.203125 -4.75 C 2.960938 -4.507812 2.703125 -4.289062 2.421875 -4.09375 C 2.148438 -3.894531 1.832031 -3.796875 1.46875 -3.796875 Z M 1.46875 -3.796875 "/></g></g></g><g fill="#251d3c" fill-opacity="1"><g transform="translate(52.150977, 37.146224)"><g><path d="M 5.578125 -2.171875 C 5.316406 -2.171875 5.039062 -2.253906 4.75 -2.421875 C 4.382812 -2.628906 4.1875 -2.890625 4.15625 -3.203125 C 4.132812 -3.253906 4.125 -3.320312 4.125 -3.40625 C 4.125 -3.488281 4.125 -3.554688 4.125 -3.609375 C 4.125 -3.660156 4.125 -3.71875 4.125 -3.78125 C 4.125 -3.84375 4.125 -3.898438 4.125 -3.953125 C 4.09375 -4.828125 4.140625 -5.691406 4.265625 -6.546875 C 4.398438 -7.410156 4.578125 -8.265625 4.796875 -9.109375 C 4.847656 -9.398438 4.910156 -9.679688 4.984375 -9.953125 C 5.066406 -10.234375 5.144531 -10.503906 5.21875 -10.765625 C 5.300781 -11.054688 5.378906 -11.335938 5.453125 -11.609375 C 5.535156 -11.890625 5.601562 -12.164062 5.65625 -12.4375 C 5.6875 -12.507812 5.707031 -12.578125 5.71875 -12.640625 C 5.726562 -12.710938 5.734375 -12.789062 5.734375 -12.875 C 5.734375 -12.925781 5.722656 -12.953125 5.703125 -12.953125 C 5.671875 -12.972656 5.617188 -12.984375 5.546875 -12.984375 C 5.046875 -12.484375 4.632812 -11.914062 4.3125 -11.28125 C 4.125 -10.988281 3.953125 -10.679688 3.796875 -10.359375 C 3.640625 -10.046875 3.484375 -9.734375 3.328125 -9.421875 C 3.171875 -9.109375 3.007812 -8.789062 2.84375 -8.46875 C 2.6875 -8.15625 2.519531 -7.851562 2.34375 -7.5625 C 2.3125 -7.476562 2.273438 -7.394531 2.234375 -7.3125 C 2.191406 -7.238281 2.144531 -7.164062 2.09375 -7.09375 C 2.019531 -6.875 1.929688 -6.703125 1.828125 -6.578125 C 1.691406 -6.359375 1.519531 -6.25 1.3125 -6.25 C 1.175781 -6.25 1.0625 -6.253906 0.96875 -6.265625 C 0.875 -6.285156 0.765625 -6.304688 0.640625 -6.328125 C 0.367188 -6.441406 0.203125 -6.5625 0.140625 -6.6875 C 0.078125 -6.820312 0.046875 -6.984375 0.046875 -7.171875 C 0.015625 -7.535156 0.03125 -7.898438 0.09375 -8.265625 C 0.164062 -8.640625 0.238281 -9.015625 0.3125 -9.390625 C 0.601562 -10.679688 0.957031 -12.050781 1.375 -13.5 C 1.800781 -14.945312 2.296875 -16.367188 2.859375 -17.765625 C 3.429688 -19.171875 4.0625 -20.441406 4.75 -21.578125 C 4.9375 -21.816406 5.117188 -22.046875 5.296875 -22.265625 C 5.484375 -22.492188 5.6875 -22.710938 5.90625 -22.921875 C 6.351562 -23.367188 6.878906 -23.59375 7.484375 -23.59375 C 7.773438 -23.59375 8.117188 -23.5 8.515625 -23.3125 C 8.910156 -23.132812 9.109375 -22.859375 9.109375 -22.484375 C 9.109375 -21.929688 8.9375 -21.335938 8.59375 -20.703125 C 8.25 -20.066406 7.8125 -19.445312 7.28125 -18.84375 C 6.757812 -18.238281 6.21875 -17.671875 5.65625 -17.140625 C 5.101562 -16.617188 4.617188 -16.171875 4.203125 -15.796875 C 3.878906 -15.535156 3.664062 -15.207031 3.5625 -14.8125 C 3.457031 -14.46875 3.363281 -14.132812 3.28125 -13.8125 C 3.207031 -13.5 3.117188 -13.1875 3.015625 -12.875 C 2.898438 -12.550781 2.800781 -12.226562 2.71875 -11.90625 C 2.644531 -11.59375 2.554688 -11.28125 2.453125 -10.96875 C 2.378906 -10.78125 2.367188 -10.554688 2.421875 -10.296875 L 2.421875 -10.328125 C 2.523438 -10.359375 2.640625 -10.492188 2.765625 -10.734375 L 3.484375 -11.953125 C 3.640625 -12.222656 3.800781 -12.484375 3.96875 -12.734375 C 4.144531 -12.984375 4.335938 -13.226562 4.546875 -13.46875 C 4.867188 -13.863281 5.140625 -14.113281 5.359375 -14.21875 C 5.585938 -14.320312 5.925781 -14.375 6.375 -14.375 C 6.957031 -14.269531 7.25 -13.910156 7.25 -13.296875 C 7.269531 -12.796875 7.226562 -12.3125 7.125 -11.84375 L 6.171875 -7.484375 C 6.046875 -6.929688 5.941406 -6.375 5.859375 -5.8125 C 5.773438 -5.257812 5.734375 -4.707031 5.734375 -4.15625 L 5.734375 -3.6875 C 5.734375 -3.632812 5.75 -3.59375 5.78125 -3.5625 C 5.800781 -3.539062 5.8125 -3.519531 5.8125 -3.5 C 5.8125 -3.488281 5.828125 -3.46875 5.859375 -3.4375 C 5.910156 -3.363281 6.015625 -3.40625 6.171875 -3.5625 C 6.460938 -3.769531 6.800781 -4.144531 7.1875 -4.6875 C 7.570312 -5.226562 7.953125 -5.832031 8.328125 -6.5 C 8.710938 -7.175781 9.066406 -7.816406 9.390625 -8.421875 C 9.722656 -9.035156 9.972656 -9.5 10.140625 -9.8125 C 10.347656 -10.238281 10.5625 -10.65625 10.78125 -11.0625 C 11.007812 -11.476562 11.269531 -11.867188 11.5625 -12.234375 C 11.664062 -12.335938 11.8125 -12.390625 12 -12.390625 C 12.1875 -12.390625 12.332031 -12.351562 12.4375 -12.28125 C 12.488281 -12.21875 12.515625 -12.160156 12.515625 -12.109375 C 12.484375 -12.085938 12.46875 -12.035156 12.46875 -11.953125 C 12.46875 -11.878906 12.441406 -11.816406 12.390625 -11.765625 C 12.046875 -11.179688 11.710938 -10.597656 11.390625 -10.015625 C 11.078125 -9.429688 10.78125 -8.851562 10.5 -8.28125 C 10.175781 -7.695312 9.847656 -7.109375 9.515625 -6.515625 C 9.191406 -5.921875 8.859375 -5.332031 8.515625 -4.75 C 8.066406 -3.988281 7.550781 -3.328125 6.96875 -2.765625 C 6.832031 -2.660156 6.695312 -2.5625 6.5625 -2.46875 C 6.4375 -2.382812 6.28125 -2.3125 6.09375 -2.25 C 5.988281 -2.226562 5.890625 -2.207031 5.796875 -2.1875 C 5.703125 -2.175781 5.628906 -2.171875 5.578125 -2.171875 Z M 4.796875 -17.78125 C 4.816406 -17.800781 4.84375 -17.8125 4.875 -17.8125 C 4.894531 -17.8125 4.921875 -17.828125 4.953125 -17.859375 C 5.265625 -18.171875 5.664062 -18.597656 6.15625 -19.140625 C 6.644531 -19.679688 7.078125 -20.253906 7.453125 -20.859375 C 7.835938 -21.472656 8.03125 -22.003906 8.03125 -22.453125 C 8.03125 -22.554688 8.019531 -22.617188 8 -22.640625 C 8 -22.703125 7.972656 -22.742188 7.921875 -22.765625 C 7.867188 -22.796875 7.828125 -22.796875 7.796875 -22.765625 C 7.722656 -22.742188 7.65625 -22.71875 7.59375 -22.6875 C 7.539062 -22.65625 7.488281 -22.628906 7.4375 -22.609375 C 7.382812 -22.554688 7.328125 -22.488281 7.265625 -22.40625 C 7.203125 -22.332031 7.144531 -22.269531 7.09375 -22.21875 C 7.039062 -22.164062 6.972656 -22.097656 6.890625 -22.015625 C 6.804688 -21.929688 6.738281 -21.863281 6.6875 -21.8125 C 6.269531 -21.207031 5.898438 -20.59375 5.578125 -19.96875 C 5.265625 -19.351562 4.976562 -18.703125 4.71875 -18.015625 C 4.6875 -17.859375 4.710938 -17.78125 4.796875 -17.78125 Z M 4.796875 -17.78125 "/></g></g></g><g fill="#251d3c" fill-opacity="1"><g transform="translate(62.683385, 37.146224)"><g><path d="M 0.078125 1.34375 C -0.265625 1.289062 -0.515625 1.144531 -0.671875 0.90625 C -0.828125 0.664062 -0.945312 0.40625 -1.03125 0.125 C -1.132812 -0.320312 -1.1875 -0.828125 -1.1875 -1.390625 C -0.976562 -3.628906 -0.628906 -5.8125 -0.140625 -7.9375 C 0.347656 -10.0625 0.960938 -12.191406 1.703125 -14.328125 C 1.722656 -14.429688 1.753906 -14.523438 1.796875 -14.609375 C 1.835938 -14.691406 1.875 -14.785156 1.90625 -14.890625 C 1.957031 -14.992188 1.992188 -15.09375 2.015625 -15.1875 C 2.046875 -15.28125 2.070312 -15.378906 2.09375 -15.484375 C 2.226562 -15.722656 2.140625 -15.84375 1.828125 -15.84375 L 1.734375 -15.84375 C 1.628906 -15.8125 1.53125 -15.789062 1.4375 -15.78125 C 1.351562 -15.769531 1.253906 -15.75 1.140625 -15.71875 C 1.035156 -15.6875 0.9375 -15.65625 0.84375 -15.625 C 0.757812 -15.601562 0.660156 -15.582031 0.546875 -15.5625 C 0.441406 -15.53125 0.332031 -15.5 0.21875 -15.46875 C 0.101562 -15.445312 -0.0195312 -15.425781 -0.15625 -15.40625 C -0.257812 -15.375 -0.378906 -15.34375 -0.515625 -15.3125 C -0.648438 -15.289062 -0.78125 -15.269531 -0.90625 -15.25 C -0.9375 -15.25 -0.976562 -15.25 -1.03125 -15.25 C -1.082031 -15.25 -1.132812 -15.25 -1.1875 -15.25 C -1.289062 -15.25 -1.382812 -15.257812 -1.46875 -15.28125 C -1.539062 -15.28125 -1.617188 -15.328125 -1.703125 -15.421875 C -1.785156 -15.515625 -1.835938 -15.613281 -1.859375 -15.71875 C -1.859375 -15.800781 -1.847656 -15.851562 -1.828125 -15.875 C -1.765625 -15.90625 -1.707031 -15.929688 -1.65625 -15.953125 C -1.601562 -15.984375 -1.566406 -16.007812 -1.546875 -16.03125 C -1.492188 -16.0625 -1.445312 -16.078125 -1.40625 -16.078125 C -1.363281 -16.078125 -1.332031 -16.085938 -1.3125 -16.109375 C -1.070312 -16.160156 -0.832031 -16.226562 -0.59375 -16.3125 C -0.351562 -16.394531 -0.113281 -16.460938 0.125 -16.515625 C 0.351562 -16.566406 0.585938 -16.628906 0.828125 -16.703125 C 1.066406 -16.785156 1.316406 -16.851562 1.578125 -16.90625 C 1.660156 -16.90625 1.710938 -16.921875 1.734375 -16.953125 C 2.109375 -17.054688 2.351562 -17.117188 2.46875 -17.140625 C 2.59375 -17.171875 2.6875 -17.242188 2.75 -17.359375 C 2.8125 -17.484375 2.925781 -17.703125 3.09375 -18.015625 C 3.4375 -18.910156 3.816406 -19.753906 4.234375 -20.546875 C 4.367188 -20.753906 4.523438 -21.0625 4.703125 -21.46875 C 4.890625 -21.882812 5.117188 -22.09375 5.390625 -22.09375 C 5.597656 -22.09375 5.769531 -21.988281 5.90625 -21.78125 C 5.976562 -21.695312 6.003906 -21.613281 5.984375 -21.53125 C 5.984375 -21.457031 5.972656 -21.375 5.953125 -21.28125 C 5.941406 -21.1875 5.925781 -21.085938 5.90625 -20.984375 C 5.820312 -20.773438 5.738281 -20.554688 5.65625 -20.328125 C 5.582031 -20.109375 5.519531 -19.890625 5.46875 -19.671875 C 5.382812 -19.460938 5.300781 -19.238281 5.21875 -19 C 5.144531 -18.769531 5.066406 -18.546875 4.984375 -18.328125 C 4.960938 -18.222656 4.941406 -18.132812 4.921875 -18.0625 C 4.910156 -18 4.90625 -17.941406 4.90625 -17.890625 C 4.90625 -17.867188 4.945312 -17.816406 5.03125 -17.734375 C 5.15625 -17.734375 5.25 -17.75 5.3125 -17.78125 C 5.675781 -17.800781 6.082031 -17.878906 6.53125 -18.015625 C 6.738281 -18.066406 6.941406 -18.101562 7.140625 -18.125 C 7.335938 -18.15625 7.546875 -18.1875 7.765625 -18.21875 C 8.023438 -18.269531 8.273438 -18.320312 8.515625 -18.375 C 8.753906 -18.425781 9.003906 -18.460938 9.265625 -18.484375 C 9.523438 -18.535156 9.773438 -18.582031 10.015625 -18.625 C 10.253906 -18.664062 10.503906 -18.703125 10.765625 -18.734375 L 12.875 -19.125 C 12.976562 -19.125 13.066406 -19.082031 13.140625 -19 C 13.328125 -18.769531 13.378906 -18.546875 13.296875 -18.328125 C 13.273438 -18.222656 13.210938 -18.144531 13.109375 -18.09375 C 12.660156 -17.9375 12.179688 -17.816406 11.671875 -17.734375 C 11.171875 -17.660156 10.6875 -17.597656 10.21875 -17.546875 C 9.976562 -17.515625 9.582031 -17.457031 9.03125 -17.375 C 8.476562 -17.300781 7.882812 -17.210938 7.25 -17.109375 C 6.613281 -17.003906 6.035156 -16.890625 5.515625 -16.765625 C 5.003906 -16.648438 4.65625 -16.539062 4.46875 -16.4375 C 4.363281 -16.351562 4.273438 -16.257812 4.203125 -16.15625 C 4.148438 -16.101562 4.039062 -15.835938 3.875 -15.359375 C 3.71875 -14.890625 3.539062 -14.347656 3.34375 -13.734375 C 3.144531 -13.128906 2.96875 -12.585938 2.8125 -12.109375 C 2.65625 -11.640625 2.5625 -11.378906 2.53125 -11.328125 C 2 -9.554688 1.519531 -7.757812 1.09375 -5.9375 C 0.675781 -4.113281 0.46875 -2.265625 0.46875 -0.390625 C 0.5 -0.335938 0.515625 -0.285156 0.515625 -0.234375 C 0.515625 -0.179688 0.523438 -0.128906 0.546875 -0.078125 C 0.546875 0.0234375 0.613281 0.101562 0.75 0.15625 C 0.851562 0.1875 0.929688 0.160156 0.984375 0.078125 C 1.015625 0.0234375 1.039062 -0.0234375 1.0625 -0.078125 C 1.09375 -0.128906 1.117188 -0.171875 1.140625 -0.203125 C 1.328125 -0.429688 1.515625 -0.671875 1.703125 -0.921875 C 1.890625 -1.179688 2.0625 -1.441406 2.21875 -1.703125 C 2.507812 -2.203125 2.804688 -2.707031 3.109375 -3.21875 C 3.410156 -3.738281 3.707031 -4.25 4 -4.75 C 4.289062 -5.25 4.570312 -5.75 4.84375 -6.25 C 5.125 -6.757812 5.410156 -7.265625 5.703125 -7.765625 C 5.859375 -8.054688 6.007812 -8.332031 6.15625 -8.59375 C 6.300781 -8.851562 6.453125 -9.117188 6.609375 -9.390625 L 7.921875 -11.765625 L 8.203125 -12.109375 C 8.253906 -12.160156 8.316406 -12.1875 8.390625 -12.1875 C 8.492188 -12.1875 8.597656 -12.148438 8.703125 -12.078125 C 8.835938 -11.992188 8.894531 -11.863281 8.875 -11.6875 C 8.820312 -11.570312 8.773438 -11.472656 8.734375 -11.390625 C 8.691406 -11.316406 8.644531 -11.253906 8.59375 -11.203125 C 8.382812 -10.785156 8.160156 -10.367188 7.921875 -9.953125 C 7.679688 -9.546875 7.457031 -9.144531 7.25 -8.75 C 7.03125 -8.320312 6.800781 -7.910156 6.5625 -7.515625 C 6.332031 -7.117188 6.113281 -6.710938 5.90625 -6.296875 L 4.59375 -4.03125 C 4.332031 -3.613281 4.109375 -3.207031 3.921875 -2.8125 C 3.628906 -2.257812 3.304688 -1.71875 2.953125 -1.1875 C 2.597656 -0.65625 2.234375 -0.128906 1.859375 0.390625 L 1.625 0.671875 C 1.414062 0.960938 1.191406 1.144531 0.953125 1.21875 C 0.710938 1.300781 0.421875 1.34375 0.078125 1.34375 Z M 0.078125 1.34375 "/></g></g></g><g fill="#251d3c" fill-opacity="1"><g transform="translate(69.493813, 37.146224)"><g><path d="M 5.578125 -2.171875 C 5.316406 -2.171875 5.039062 -2.253906 4.75 -2.421875 C 4.382812 -2.628906 4.1875 -2.890625 4.15625 -3.203125 C 4.132812 -3.253906 4.125 -3.320312 4.125 -3.40625 C 4.125 -3.488281 4.125 -3.554688 4.125 -3.609375 C 4.125 -3.660156 4.125 -3.71875 4.125 -3.78125 C 4.125 -3.84375 4.125 -3.898438 4.125 -3.953125 C 4.09375 -4.828125 4.140625 -5.691406 4.265625 -6.546875 C 4.398438 -7.410156 4.578125 -8.265625 4.796875 -9.109375 C 4.847656 -9.398438 4.910156 -9.679688 4.984375 -9.953125 C 5.066406 -10.234375 5.144531 -10.503906 5.21875 -10.765625 C 5.300781 -11.054688 5.378906 -11.335938 5.453125 -11.609375 C 5.535156 -11.890625 5.601562 -12.164062 5.65625 -12.4375 C 5.6875 -12.507812 5.707031 -12.578125 5.71875 -12.640625 C 5.726562 -12.710938 5.734375 -12.789062 5.734375 -12.875 C 5.734375 -12.925781 5.722656 -12.953125 5.703125 -12.953125 C 5.671875 -12.972656 5.617188 -12.984375 5.546875 -12.984375 C 5.046875 -12.484375 4.632812 -11.914062 4.3125 -11.28125 C 4.125 -10.988281 3.953125 -10.679688 3.796875 -10.359375 C 3.640625 -10.046875 3.484375 -9.734375 3.328125 -9.421875 C 3.171875 -9.109375 3.007812 -8.789062 2.84375 -8.46875 C 2.6875 -8.15625 2.519531 -7.851562 2.34375 -7.5625 C 2.3125 -7.476562 2.273438 -7.394531 2.234375 -7.3125 C 2.191406 -7.238281 2.144531 -7.164062 2.09375 -7.09375 C 2.019531 -6.875 1.929688 -6.703125 1.828125 -6.578125 C 1.691406 -6.359375 1.519531 -6.25 1.3125 -6.25 C 1.175781 -6.25 1.0625 -6.253906 0.96875 -6.265625 C 0.875 -6.285156 0.765625 -6.304688 0.640625 -6.328125 C 0.367188 -6.441406 0.203125 -6.5625 0.140625 -6.6875 C 0.078125 -6.820312 0.046875 -6.984375 0.046875 -7.171875 C 0.015625 -7.535156 0.03125 -7.898438 0.09375 -8.265625 C 0.164062 -8.640625 0.238281 -9.015625 0.3125 -9.390625 C 0.601562 -10.679688 0.957031 -12.050781 1.375 -13.5 C 1.800781 -14.945312 2.296875 -16.367188 2.859375 -17.765625 C 3.429688 -19.171875 4.0625 -20.441406 4.75 -21.578125 C 4.9375 -21.816406 5.117188 -22.046875 5.296875 -22.265625 C 5.484375 -22.492188 5.6875 -22.710938 5.90625 -22.921875 C 6.351562 -23.367188 6.878906 -23.59375 7.484375 -23.59375 C 7.773438 -23.59375 8.117188 -23.5 8.515625 -23.3125 C 8.910156 -23.132812 9.109375 -22.859375 9.109375 -22.484375 C 9.109375 -21.929688 8.9375 -21.335938 8.59375 -20.703125 C 8.25 -20.066406 7.8125 -19.445312 7.28125 -18.84375 C 6.757812 -18.238281 6.21875 -17.671875 5.65625 -17.140625 C 5.101562 -16.617188 4.617188 -16.171875 4.203125 -15.796875 C 3.878906 -15.535156 3.664062 -15.207031 3.5625 -14.8125 C 3.457031 -14.46875 3.363281 -14.132812 3.28125 -13.8125 C 3.207031 -13.5 3.117188 -13.1875 3.015625 -12.875 C 2.898438 -12.550781 2.800781 -12.226562 2.71875 -11.90625 C 2.644531 -11.59375 2.554688 -11.28125 2.453125 -10.96875 C 2.378906 -10.78125 2.367188 -10.554688 2.421875 -10.296875 L 2.421875 -10.328125 C 2.523438 -10.359375 2.640625 -10.492188 2.765625 -10.734375 L 3.484375 -11.953125 C 3.640625 -12.222656 3.800781 -12.484375 3.96875 -12.734375 C 4.144531 -12.984375 4.335938 -13.226562 4.546875 -13.46875 C 4.867188 -13.863281 5.140625 -14.113281 5.359375 -14.21875 C 5.585938 -14.320312 5.925781 -14.375 6.375 -14.375 C 6.957031 -14.269531 7.25 -13.910156 7.25 -13.296875 C 7.269531 -12.796875 7.226562 -12.3125 7.125 -11.84375 L 6.171875 -7.484375 C 6.046875 -6.929688 5.941406 -6.375 5.859375 -5.8125 C 5.773438 -5.257812 5.734375 -4.707031 5.734375 -4.15625 L 5.734375 -3.6875 C 5.734375 -3.632812 5.75 -3.59375 5.78125 -3.5625 C 5.800781 -3.539062 5.8125 -3.519531 5.8125 -3.5 C 5.8125 -3.488281 5.828125 -3.46875 5.859375 -3.4375 C 5.910156 -3.363281 6.015625 -3.40625 6.171875 -3.5625 C 6.460938 -3.769531 6.800781 -4.144531 7.1875 -4.6875 C 7.570312 -5.226562 7.953125 -5.832031 8.328125 -6.5 C 8.710938 -7.175781 9.066406 -7.816406 9.390625 -8.421875 C 9.722656 -9.035156 9.972656 -9.5 10.140625 -9.8125 C 10.347656 -10.238281 10.5625 -10.65625 10.78125 -11.0625 C 11.007812 -11.476562 11.269531 -11.867188 11.5625 -12.234375 C 11.664062 -12.335938 11.8125 -12.390625 12 -12.390625 C 12.1875 -12.390625 12.332031 -12.351562 12.4375 -12.28125 C 12.488281 -12.21875 12.515625 -12.160156 12.515625 -12.109375 C 12.484375 -12.085938 12.46875 -12.035156 12.46875 -11.953125 C 12.46875 -11.878906 12.441406 -11.816406 12.390625 -11.765625 C 12.046875 -11.179688 11.710938 -10.597656 11.390625 -10.015625 C 11.078125 -9.429688 10.78125 -8.851562 10.5 -8.28125 C 10.175781 -7.695312 9.847656 -7.109375 9.515625 -6.515625 C 9.191406 -5.921875 8.859375 -5.332031 8.515625 -4.75 C 8.066406 -3.988281 7.550781 -3.328125 6.96875 -2.765625 C 6.832031 -2.660156 6.695312 -2.5625 6.5625 -2.46875 C 6.4375 -2.382812 6.28125 -2.3125 6.09375 -2.25 C 5.988281 -2.226562 5.890625 -2.207031 5.796875 -2.1875 C 5.703125 -2.175781 5.628906 -2.171875 5.578125 -2.171875 Z M 4.796875 -17.78125 C 4.816406 -17.800781 4.84375 -17.8125 4.875 -17.8125 C 4.894531 -17.8125 4.921875 -17.828125 4.953125 -17.859375 C 5.265625 -18.171875 5.664062 -18.597656 6.15625 -19.140625 C 6.644531 -19.679688 7.078125 -20.253906 7.453125 -20.859375 C 7.835938 -21.472656 8.03125 -22.003906 8.03125 -22.453125 C 8.03125 -22.554688 8.019531 -22.617188 8 -22.640625 C 8 -22.703125 7.972656 -22.742188 7.921875 -22.765625 C 7.867188 -22.796875 7.828125 -22.796875 7.796875 -22.765625 C 7.722656 -22.742188 7.65625 -22.71875 7.59375 -22.6875 C 7.539062 -22.65625 7.488281 -22.628906 7.4375 -22.609375 C 7.382812 -22.554688 7.328125 -22.488281 7.265625 -22.40625 C 7.203125 -22.332031 7.144531 -22.269531 7.09375 -22.21875 C 7.039062 -22.164062 6.972656 -22.097656 6.890625 -22.015625 C 6.804688 -21.929688 6.738281 -21.863281 6.6875 -21.8125 C 6.269531 -21.207031 5.898438 -20.59375 5.578125 -19.96875 C 5.265625 -19.351562 4.976562 -18.703125 4.71875 -18.015625 C 4.6875 -17.859375 4.710938 -17.78125 4.796875 -17.78125 Z M 4.796875 -17.78125 "/></g></g></g><g fill="#251d3c" fill-opacity="1"><g transform="translate(80.026221, 37.146224)"><g><path d="M 1.3125 -3.203125 C 0.9375 -3.203125 0.578125 -3.296875 0.234375 -3.484375 C -0.109375 -3.671875 -0.332031 -3.960938 -0.4375 -4.359375 L -0.546875 -4.984375 C -0.710938 -7.304688 -0.253906 -9.566406 0.828125 -11.765625 C 0.984375 -12.046875 1.160156 -12.332031 1.359375 -12.625 C 1.554688 -12.914062 1.773438 -13.179688 2.015625 -13.421875 C 2.117188 -13.523438 2.226562 -13.632812 2.34375 -13.75 C 2.46875 -13.875 2.609375 -13.988281 2.765625 -14.09375 C 3.140625 -14.300781 3.472656 -14.40625 3.765625 -14.40625 C 3.972656 -14.40625 4.15625 -14.398438 4.3125 -14.390625 C 4.46875 -14.378906 4.640625 -14.320312 4.828125 -14.21875 C 5.597656 -13.875 5.847656 -13.289062 5.578125 -12.46875 C 5.398438 -11.832031 5.066406 -11.273438 4.578125 -10.796875 C 4.085938 -10.328125 3.578125 -9.9375 3.046875 -9.625 C 2.972656 -9.59375 2.894531 -9.5625 2.8125 -9.53125 C 2.726562 -9.507812 2.648438 -9.488281 2.578125 -9.46875 C 2.492188 -9.4375 2.410156 -9.40625 2.328125 -9.375 C 2.253906 -9.351562 2.164062 -9.328125 2.0625 -9.296875 C 1.820312 -9.273438 1.660156 -9.117188 1.578125 -8.828125 L 1.34375 -7.84375 C 1.269531 -7.363281 1.210938 -6.878906 1.171875 -6.390625 C 1.128906 -5.898438 1.117188 -5.421875 1.140625 -4.953125 L 1.140625 -4.671875 C 1.203125 -4.378906 1.3125 -4.234375 1.46875 -4.234375 C 1.675781 -4.234375 1.960938 -4.410156 2.328125 -4.765625 C 2.703125 -5.128906 3.085938 -5.550781 3.484375 -6.03125 C 3.878906 -6.519531 4.238281 -6.992188 4.5625 -7.453125 C 4.894531 -7.921875 5.113281 -8.25 5.21875 -8.4375 L 7.609375 -12 C 7.628906 -12.019531 7.644531 -12.039062 7.65625 -12.0625 C 7.675781 -12.09375 7.695312 -12.125 7.71875 -12.15625 C 7.71875 -12.207031 7.742188 -12.257812 7.796875 -12.3125 C 7.878906 -12.394531 7.984375 -12.4375 8.109375 -12.4375 C 8.273438 -12.4375 8.394531 -12.382812 8.46875 -12.28125 C 8.519531 -12.21875 8.546875 -12.160156 8.546875 -12.109375 C 8.546875 -11.984375 8.484375 -11.8125 8.359375 -11.59375 C 8.304688 -11.488281 8.25 -11.394531 8.1875 -11.3125 C 8.132812 -11.238281 8.097656 -11.175781 8.078125 -11.125 C 7.867188 -10.78125 7.648438 -10.441406 7.421875 -10.109375 C 7.203125 -9.785156 6.984375 -9.453125 6.765625 -9.109375 C 6.554688 -8.765625 6.332031 -8.421875 6.09375 -8.078125 C 5.851562 -7.734375 5.628906 -7.390625 5.421875 -7.046875 C 5.128906 -6.628906 4.832031 -6.210938 4.53125 -5.796875 C 4.226562 -5.390625 3.921875 -4.988281 3.609375 -4.59375 C 3.316406 -4.25 2.984375 -3.929688 2.609375 -3.640625 C 2.242188 -3.347656 1.8125 -3.203125 1.3125 -3.203125 Z M 2.171875 -10.140625 C 2.222656 -10.085938 2.28125 -10.085938 2.34375 -10.140625 C 2.675781 -10.265625 3.023438 -10.503906 3.390625 -10.859375 C 3.765625 -11.222656 4.078125 -11.613281 4.328125 -12.03125 C 4.585938 -12.457031 4.71875 -12.851562 4.71875 -13.21875 L 4.71875 -13.296875 C 4.6875 -13.484375 4.578125 -13.578125 4.390625 -13.578125 C 4.097656 -13.578125 3.785156 -13.363281 3.453125 -12.9375 C 3.128906 -12.519531 2.84375 -12.050781 2.59375 -11.53125 C 2.34375 -11.019531 2.175781 -10.632812 2.09375 -10.375 C 2.039062 -10.238281 2.066406 -10.160156 2.171875 -10.140625 Z M 2.171875 -10.140625 "/></g></g></g><g fill="#251d3c" fill-opacity="1"><g transform="translate(86.599078, 37.146224)"><g><path d="M 9.296875 -2.375 C 9.140625 -2.375 8.984375 -2.378906 8.828125 -2.390625 C 8.671875 -2.410156 8.523438 -2.457031 8.390625 -2.53125 C 7.941406 -2.738281 7.679688 -3.070312 7.609375 -3.53125 C 7.472656 -4.082031 7.441406 -4.566406 7.515625 -4.984375 C 7.648438 -6.410156 7.910156 -7.820312 8.296875 -9.21875 C 8.679688 -10.625 9.132812 -12 9.65625 -13.34375 C 9.6875 -13.394531 9.707031 -13.453125 9.71875 -13.515625 C 9.726562 -13.585938 9.75 -13.648438 9.78125 -13.703125 C 9.78125 -13.773438 9.804688 -13.894531 9.859375 -14.0625 C 9.941406 -14.1875 9.898438 -14.222656 9.734375 -14.171875 C 9.523438 -14.046875 9.253906 -13.742188 8.921875 -13.265625 C 8.597656 -12.785156 8.289062 -12.300781 8 -11.8125 C 7.707031 -11.332031 7.507812 -10.972656 7.40625 -10.734375 L 6.375 -8.953125 C 6.238281 -8.734375 6.09375 -8.519531 5.9375 -8.3125 C 5.78125 -8.101562 5.570312 -8 5.3125 -8 L 5.140625 -8 C 5.117188 -8.019531 5.085938 -8.03125 5.046875 -8.03125 C 5.003906 -8.03125 4.957031 -8.046875 4.90625 -8.078125 C 4.882812 -8.097656 4.851562 -8.109375 4.8125 -8.109375 C 4.769531 -8.109375 4.738281 -8.125 4.71875 -8.15625 C 4.257812 -8.34375 4.046875 -8.6875 4.078125 -9.1875 L 4.203125 -10.09375 C 4.222656 -10.226562 4.238281 -10.351562 4.25 -10.46875 C 4.269531 -10.59375 4.28125 -10.71875 4.28125 -10.84375 C 4.28125 -10.894531 4.238281 -10.9375 4.15625 -10.96875 C 4.132812 -10.96875 4.109375 -10.953125 4.078125 -10.921875 C 4.046875 -10.867188 4.007812 -10.8125 3.96875 -10.75 C 3.9375 -10.6875 3.894531 -10.628906 3.84375 -10.578125 C 3.789062 -10.523438 3.742188 -10.457031 3.703125 -10.375 C 3.660156 -10.289062 3.613281 -10.222656 3.5625 -10.171875 C 3.476562 -10.046875 3.394531 -9.910156 3.3125 -9.765625 C 3.238281 -9.617188 3.175781 -9.476562 3.125 -9.34375 C 3.050781 -9.207031 2.972656 -9.0625 2.890625 -8.90625 C 2.804688 -8.75 2.726562 -8.601562 2.65625 -8.46875 C 2.601562 -8.394531 2.554688 -8.316406 2.515625 -8.234375 C 2.472656 -8.148438 2.425781 -8.082031 2.375 -8.03125 C 2.351562 -7.957031 2.3125 -7.878906 2.25 -7.796875 C 2.195312 -7.722656 2.144531 -7.660156 2.09375 -7.609375 C 1.9375 -7.421875 1.765625 -7.328125 1.578125 -7.328125 C 1.421875 -7.328125 1.316406 -7.335938 1.265625 -7.359375 C 1.242188 -7.390625 1.203125 -7.40625 1.140625 -7.40625 C 1.066406 -7.40625 1.015625 -7.414062 0.984375 -7.4375 C 0.617188 -7.601562 0.421875 -7.894531 0.390625 -8.3125 C 0.335938 -8.445312 0.335938 -8.578125 0.390625 -8.703125 C 0.390625 -8.765625 0.390625 -8.828125 0.390625 -8.890625 C 0.390625 -8.953125 0.390625 -9.007812 0.390625 -9.0625 C 0.523438 -9.75 0.664062 -10.425781 0.8125 -11.09375 C 0.957031 -11.769531 1.132812 -12.453125 1.34375 -13.140625 C 1.445312 -13.328125 1.539062 -13.578125 1.625 -13.890625 C 1.675781 -14.023438 1.722656 -14.148438 1.765625 -14.265625 C 1.804688 -14.390625 1.851562 -14.503906 1.90625 -14.609375 C 1.925781 -14.796875 2.039062 -14.890625 2.25 -14.890625 C 2.382812 -14.890625 2.46875 -14.875 2.5 -14.84375 C 2.789062 -14.71875 2.921875 -14.535156 2.890625 -14.296875 C 2.890625 -13.953125 2.847656 -13.617188 2.765625 -13.296875 C 2.691406 -12.847656 2.609375 -12.40625 2.515625 -11.96875 C 2.421875 -11.539062 2.320312 -11.101562 2.21875 -10.65625 C 2.164062 -10.519531 2.125 -10.382812 2.09375 -10.25 C 2.070312 -10.125 2.085938 -9.976562 2.140625 -9.8125 C 2.160156 -9.789062 2.1875 -9.78125 2.21875 -9.78125 L 2.296875 -9.78125 L 3.71875 -11.953125 L 4.3125 -12.671875 C 4.46875 -12.878906 4.65625 -12.984375 4.875 -12.984375 C 5.082031 -12.984375 5.289062 -12.910156 5.5 -12.765625 C 5.707031 -12.617188 5.828125 -12.425781 5.859375 -12.1875 L 5.859375 -10.765625 L 5.90625 -10.6875 C 6.007812 -10.6875 6.0625 -10.703125 6.0625 -10.734375 C 6.082031 -10.753906 6.113281 -10.789062 6.15625 -10.84375 C 6.195312 -10.894531 6.242188 -10.945312 6.296875 -11 L 6.96875 -12.03125 C 7.3125 -12.5625 7.671875 -13.085938 8.046875 -13.609375 C 8.429688 -14.140625 8.847656 -14.644531 9.296875 -15.125 C 9.429688 -15.3125 9.632812 -15.519531 9.90625 -15.75 C 10.1875 -15.988281 10.445312 -16.109375 10.6875 -16.109375 C 10.894531 -16.109375 11.113281 -16.03125 11.34375 -15.875 C 11.570312 -15.71875 11.695312 -15.519531 11.71875 -15.28125 C 11.71875 -14.75 11.664062 -14.316406 11.5625 -13.984375 C 11.53125 -13.847656 11.5 -13.71875 11.46875 -13.59375 C 11.445312 -13.476562 11.410156 -13.351562 11.359375 -13.21875 C 11.335938 -13.09375 11.304688 -12.96875 11.265625 -12.84375 C 11.222656 -12.726562 11.191406 -12.601562 11.171875 -12.46875 C 11.054688 -12.050781 10.941406 -11.625 10.828125 -11.1875 C 10.710938 -10.75 10.585938 -10.304688 10.453125 -9.859375 C 10.191406 -8.984375 9.953125 -8.113281 9.734375 -7.25 C 9.628906 -6.90625 9.550781 -6.535156 9.5 -6.140625 C 9.476562 -5.953125 9.445312 -5.757812 9.40625 -5.5625 C 9.363281 -5.363281 9.316406 -5.171875 9.265625 -4.984375 C 9.234375 -4.929688 9.21875 -4.863281 9.21875 -4.78125 C 9.21875 -4.707031 9.21875 -4.644531 9.21875 -4.59375 C 9.21875 -4.507812 9.21875 -4.425781 9.21875 -4.34375 C 9.21875 -4.269531 9.21875 -4.195312 9.21875 -4.125 C 9.21875 -4.039062 9.257812 -4 9.34375 -4 C 9.425781 -3.96875 9.503906 -3.992188 9.578125 -4.078125 C 9.628906 -4.128906 9.679688 -4.191406 9.734375 -4.265625 C 9.785156 -4.347656 9.835938 -4.429688 9.890625 -4.515625 C 10.316406 -5.148438 10.703125 -5.789062 11.046875 -6.4375 C 11.390625 -7.082031 11.734375 -7.734375 12.078125 -8.390625 C 12.335938 -8.921875 12.59375 -9.429688 12.84375 -9.921875 C 13.09375 -10.410156 13.351562 -10.90625 13.625 -11.40625 L 14.015625 -12.109375 C 14.148438 -12.273438 14.296875 -12.359375 14.453125 -12.359375 C 14.554688 -12.359375 14.660156 -12.332031 14.765625 -12.28125 C 14.953125 -12.164062 15.003906 -12.03125 14.921875 -11.875 L 14.890625 -11.71875 C 14.859375 -11.695312 14.835938 -11.664062 14.828125 -11.625 C 14.816406 -11.582031 14.796875 -11.535156 14.765625 -11.484375 C 14.742188 -11.429688 14.71875 -11.382812 14.6875 -11.34375 C 14.664062 -11.300781 14.640625 -11.253906 14.609375 -11.203125 C 14.421875 -10.804688 14.226562 -10.410156 14.03125 -10.015625 C 13.832031 -9.617188 13.628906 -9.222656 13.421875 -8.828125 C 13.234375 -8.410156 13.035156 -8.003906 12.828125 -7.609375 C 12.617188 -7.210938 12.40625 -6.816406 12.1875 -6.421875 C 11.925781 -5.910156 11.671875 -5.414062 11.421875 -4.9375 C 11.171875 -4.46875 10.898438 -4.007812 10.609375 -3.5625 C 10.503906 -3.40625 10.398438 -3.242188 10.296875 -3.078125 C 10.191406 -2.921875 10.070312 -2.78125 9.9375 -2.65625 C 9.78125 -2.46875 9.566406 -2.375 9.296875 -2.375 Z M 9.296875 -2.375 "/></g></g></g><g fill="#251d3c" fill-opacity="1"><g transform="translate(99.586403, 37.146224)"><g><path d="M 6.296875 -3.765625 C 5.609375 -3.765625 5.085938 -4.015625 4.734375 -4.515625 C 4.378906 -5.015625 4.203125 -5.566406 4.203125 -6.171875 C 4.222656 -6.359375 4.242188 -6.53125 4.265625 -6.6875 C 4.296875 -6.84375 4.328125 -7.003906 4.359375 -7.171875 C 4.378906 -7.328125 4.398438 -7.484375 4.421875 -7.640625 C 4.453125 -7.796875 4.484375 -7.953125 4.515625 -8.109375 C 4.515625 -8.191406 4.523438 -8.257812 4.546875 -8.3125 C 4.546875 -8.34375 4.546875 -8.367188 4.546875 -8.390625 C 4.546875 -8.421875 4.546875 -8.445312 4.546875 -8.46875 C 4.546875 -8.46875 4.539062 -8.476562 4.53125 -8.5 C 4.519531 -8.53125 4.488281 -8.5625 4.4375 -8.59375 L 4.359375 -8.59375 C 4.304688 -8.539062 4.253906 -8.488281 4.203125 -8.4375 C 4.148438 -8.382812 4.09375 -8.332031 4.03125 -8.28125 C 3.425781 -7.5625 2.769531 -6.898438 2.0625 -6.296875 C 1.875 -6.160156 1.648438 -6.09375 1.390625 -6.09375 L 1.140625 -6.09375 C 0.691406 -6.144531 0.304688 -6.300781 -0.015625 -6.5625 C -0.347656 -6.832031 -0.539062 -7.207031 -0.59375 -7.6875 C -0.59375 -8.757812 -0.351562 -9.75 0.125 -10.65625 C 0.195312 -10.78125 0.269531 -10.914062 0.34375 -11.0625 C 0.425781 -11.207031 0.507812 -11.347656 0.59375 -11.484375 C 0.675781 -11.617188 0.753906 -11.742188 0.828125 -11.859375 C 0.910156 -11.972656 0.988281 -12.097656 1.0625 -12.234375 C 1.195312 -12.441406 1.335938 -12.625 1.484375 -12.78125 C 1.628906 -12.945312 1.78125 -13.09375 1.9375 -13.21875 C 2.382812 -13.5625 2.882812 -13.734375 3.4375 -13.734375 C 4.289062 -13.734375 4.953125 -13.363281 5.421875 -12.625 L 5.625 -12.1875 C 5.675781 -12.1875 5.710938 -12.1875 5.734375 -12.1875 C 5.765625 -12.1875 5.78125 -12.1875 5.78125 -12.1875 C 5.832031 -12.21875 5.925781 -12.300781 6.0625 -12.4375 L 7.25 -14.140625 C 7.320312 -14.242188 7.398438 -14.347656 7.484375 -14.453125 C 7.566406 -14.554688 7.644531 -14.675781 7.71875 -14.8125 C 7.820312 -14.988281 7.984375 -15.078125 8.203125 -15.078125 C 8.359375 -15.078125 8.488281 -15.023438 8.59375 -14.921875 C 8.75 -14.847656 8.816406 -14.71875 8.796875 -14.53125 C 8.796875 -14.476562 8.738281 -14.28125 8.625 -13.9375 C 8.519531 -13.59375 8.398438 -13.253906 8.265625 -12.921875 C 8.140625 -12.597656 8.035156 -12.382812 7.953125 -12.28125 C 7.828125 -11.90625 7.679688 -11.523438 7.515625 -11.140625 C 7.359375 -10.765625 7.203125 -10.390625 7.046875 -10.015625 C 6.804688 -9.410156 6.613281 -8.796875 6.46875 -8.171875 C 6.320312 -7.554688 6.1875 -6.914062 6.0625 -6.25 C 6.03125 -6.039062 6 -5.820312 5.96875 -5.59375 C 5.945312 -5.375 5.960938 -5.160156 6.015625 -4.953125 C 6.097656 -4.816406 6.191406 -4.75 6.296875 -4.75 C 6.316406 -4.75 6.328125 -4.765625 6.328125 -4.796875 C 6.328125 -4.796875 6.34375 -4.796875 6.375 -4.796875 C 6.53125 -4.867188 6.660156 -4.957031 6.765625 -5.0625 C 6.929688 -5.164062 7.050781 -5.257812 7.125 -5.34375 C 7.550781 -5.769531 8.039062 -6.367188 8.59375 -7.140625 C 9.144531 -7.921875 9.675781 -8.71875 10.1875 -9.53125 C 10.707031 -10.351562 11.097656 -11.03125 11.359375 -11.5625 C 11.441406 -11.769531 11.5625 -11.953125 11.71875 -12.109375 C 11.769531 -12.191406 11.847656 -12.234375 11.953125 -12.234375 C 12.242188 -12.234375 12.40625 -12.140625 12.4375 -11.953125 C 12.4375 -11.898438 12.4375 -11.859375 12.4375 -11.828125 C 12.4375 -11.804688 12.4375 -11.796875 12.4375 -11.796875 C 12.40625 -11.742188 12.375 -11.671875 12.34375 -11.578125 C 12.320312 -11.484375 12.285156 -11.382812 12.234375 -11.28125 C 12.128906 -11.125 12.035156 -10.96875 11.953125 -10.8125 C 11.878906 -10.65625 11.800781 -10.492188 11.71875 -10.328125 C 11.613281 -10.171875 11.519531 -10.015625 11.4375 -9.859375 C 11.363281 -9.703125 11.273438 -9.554688 11.171875 -9.421875 L 9.5 -6.8125 C 9.289062 -6.519531 9.085938 -6.226562 8.890625 -5.9375 C 8.691406 -5.644531 8.488281 -5.367188 8.28125 -5.109375 C 8.007812 -4.785156 7.71875 -4.492188 7.40625 -4.234375 C 7.0625 -3.921875 6.691406 -3.765625 6.296875 -3.765625 Z M 1.390625 -7.4375 C 1.515625 -7.4375 1.59375 -7.453125 1.625 -7.484375 C 1.675781 -7.535156 1.738281 -7.585938 1.8125 -7.640625 C 1.894531 -7.691406 1.960938 -7.734375 2.015625 -7.765625 C 2.171875 -7.867188 2.289062 -7.957031 2.375 -8.03125 C 2.925781 -8.5625 3.429688 -9.101562 3.890625 -9.65625 C 4.359375 -10.21875 4.816406 -10.800781 5.265625 -11.40625 C 5.296875 -11.425781 5.316406 -11.441406 5.328125 -11.453125 C 5.335938 -11.472656 5.34375 -11.484375 5.34375 -11.484375 C 5.394531 -11.640625 5.351562 -11.742188 5.21875 -11.796875 C 4.9375 -11.898438 4.769531 -12.097656 4.71875 -12.390625 C 4.6875 -12.441406 4.65625 -12.492188 4.625 -12.546875 C 4.601562 -12.597656 4.566406 -12.664062 4.515625 -12.75 C 4.429688 -12.90625 4.3125 -12.984375 4.15625 -12.984375 C 3.84375 -12.984375 3.519531 -12.785156 3.1875 -12.390625 C 2.851562 -11.992188 2.546875 -11.507812 2.265625 -10.9375 C 1.992188 -10.375 1.765625 -9.804688 1.578125 -9.234375 C 1.398438 -8.671875 1.285156 -8.207031 1.234375 -7.84375 C 1.234375 -7.601562 1.285156 -7.46875 1.390625 -7.4375 Z M 1.390625 -7.4375 "/></g></g></g><g fill="#251d3c" fill-opacity="1"><g transform="translate(110.039617, 37.146224)"><g><path d="M 0.15625 6.09375 C -0.0820312 6.09375 -0.304688 6.039062 -0.515625 5.9375 C -0.722656 5.832031 -0.878906 5.660156 -0.984375 5.421875 C -1.035156 5.210938 -1.082031 5.015625 -1.125 4.828125 C -1.164062 4.640625 -1.160156 4.441406 -1.109375 4.234375 C -0.867188 2.734375 -0.304688 1.316406 0.578125 -0.015625 C 1.460938 -1.347656 2.390625 -2.570312 3.359375 -3.6875 C 3.472656 -3.8125 3.570312 -3.953125 3.65625 -4.109375 C 3.75 -4.273438 3.820312 -4.460938 3.875 -4.671875 C 4.09375 -5.546875 4.328125 -6.414062 4.578125 -7.28125 C 4.828125 -8.15625 5.097656 -9.015625 5.390625 -9.859375 L 5.625 -10.65625 C 5.625 -10.707031 5.597656 -10.757812 5.546875 -10.8125 L 5.46875 -10.8125 C 5.4375 -10.78125 5.378906 -10.734375 5.296875 -10.671875 C 5.222656 -10.609375 5.132812 -10.535156 5.03125 -10.453125 C 4.84375 -10.296875 4.671875 -10.132812 4.515625 -9.96875 C 4.359375 -9.8125 4.195312 -9.65625 4.03125 -9.5 C 3.875 -9.3125 3.707031 -9.140625 3.53125 -8.984375 C 3.363281 -8.828125 3.191406 -8.671875 3.015625 -8.515625 C 2.742188 -8.242188 2.425781 -8.003906 2.0625 -7.796875 C 1.789062 -7.609375 1.484375 -7.515625 1.140625 -7.515625 C 0.804688 -7.515625 0.472656 -7.613281 0.140625 -7.8125 C -0.191406 -8.007812 -0.382812 -8.296875 -0.4375 -8.671875 C -0.4375 -9.460938 -0.253906 -10.207031 0.109375 -10.90625 C 0.484375 -11.601562 0.960938 -12.21875 1.546875 -12.75 C 1.597656 -12.800781 1.632812 -12.832031 1.65625 -12.84375 C 1.6875 -12.863281 1.710938 -12.882812 1.734375 -12.90625 C 2.242188 -13.332031 2.828125 -13.546875 3.484375 -13.546875 C 4.242188 -13.546875 4.90625 -13.265625 5.46875 -12.703125 C 5.488281 -12.679688 5.523438 -12.671875 5.578125 -12.671875 C 5.660156 -12.671875 5.710938 -12.679688 5.734375 -12.703125 L 6.84375 -13.859375 C 6.976562 -13.992188 7.164062 -14.0625 7.40625 -14.0625 C 7.507812 -14.0625 7.640625 -14.035156 7.796875 -13.984375 C 8.003906 -13.867188 8.082031 -13.707031 8.03125 -13.5 C 8.007812 -13.414062 8 -13.320312 8 -13.21875 C 7.96875 -13.164062 7.945312 -13.109375 7.9375 -13.046875 C 7.925781 -12.984375 7.90625 -12.925781 7.875 -12.875 C 7.769531 -12.53125 7.671875 -12.1875 7.578125 -11.84375 C 7.484375 -11.5 7.382812 -11.15625 7.28125 -10.8125 C 7.175781 -10.46875 7.070312 -10.113281 6.96875 -9.75 C 6.863281 -9.394531 6.757812 -9.035156 6.65625 -8.671875 C 6.601562 -8.515625 6.578125 -8.367188 6.578125 -8.234375 C 6.546875 -8.148438 6.53125 -8.066406 6.53125 -7.984375 C 6.53125 -7.910156 6.519531 -7.835938 6.5 -7.765625 L 6.53125 -7.71875 C 6.582031 -7.695312 6.625 -7.695312 6.65625 -7.71875 C 6.726562 -7.75 6.816406 -7.816406 6.921875 -7.921875 C 7.140625 -8.210938 7.363281 -8.492188 7.59375 -8.765625 C 7.832031 -9.046875 8.070312 -9.316406 8.3125 -9.578125 C 8.519531 -9.847656 8.742188 -10.117188 8.984375 -10.390625 C 9.222656 -10.671875 9.445312 -10.957031 9.65625 -11.25 C 9.875 -11.539062 10.113281 -11.816406 10.375 -12.078125 C 10.476562 -12.179688 10.625 -12.234375 10.8125 -12.234375 C 11.019531 -12.234375 11.191406 -12.164062 11.328125 -12.03125 C 11.398438 -11.976562 11.410156 -11.925781 11.359375 -11.875 C 11.335938 -11.820312 11.3125 -11.757812 11.28125 -11.6875 C 11.257812 -11.625 11.222656 -11.554688 11.171875 -11.484375 L 9.625 -9.578125 C 9.351562 -9.234375 9.078125 -8.898438 8.796875 -8.578125 C 8.523438 -8.265625 8.242188 -7.941406 7.953125 -7.609375 C 7.691406 -7.265625 7.414062 -6.929688 7.125 -6.609375 C 6.832031 -6.296875 6.539062 -5.96875 6.25 -5.625 C 6.039062 -5.382812 5.867188 -5.125 5.734375 -4.84375 C 5.609375 -4.570312 5.503906 -4.273438 5.421875 -3.953125 C 5.316406 -3.609375 5.222656 -3.257812 5.140625 -2.90625 C 5.066406 -2.550781 4.988281 -2.191406 4.90625 -1.828125 C 4.800781 -1.484375 4.703125 -1.125 4.609375 -0.75 C 4.515625 -0.382812 4.414062 -0.015625 4.3125 0.359375 C 4.15625 0.960938 3.96875 1.5625 3.75 2.15625 C 3.539062 2.75 3.296875 3.335938 3.015625 3.921875 C 2.671875 4.503906 2.285156 5.007812 1.859375 5.4375 C 1.441406 5.875 0.875 6.09375 0.15625 6.09375 Z M 0.28125 5.140625 C 0.28125 5.140625 0.359375 5.113281 0.515625 5.0625 C 0.535156 5.039062 0.550781 5.019531 0.5625 5 C 0.582031 4.988281 0.609375 4.972656 0.640625 4.953125 C 0.640625 4.953125 0.664062 4.925781 0.71875 4.875 C 1 4.5 1.257812 4.035156 1.5 3.484375 C 1.820312 2.773438 2.085938 2.039062 2.296875 1.28125 C 2.503906 0.53125 2.71875 -0.222656 2.9375 -0.984375 C 2.9375 -1.035156 2.9375 -1.082031 2.9375 -1.125 C 2.9375 -1.164062 2.9375 -1.1875 2.9375 -1.1875 C 2.9375 -1.269531 2.921875 -1.320312 2.890625 -1.34375 C 2.785156 -1.34375 2.71875 -1.332031 2.6875 -1.3125 C 1.71875 -0.0390625 0.925781 1.34375 0.3125 2.84375 C 0.238281 3.113281 0.175781 3.375 0.125 3.625 C 0.0703125 3.875 0.046875 4.128906 0.046875 4.390625 C 0.046875 4.628906 0.0546875 4.789062 0.078125 4.875 C 0.078125 5.050781 0.144531 5.140625 0.28125 5.140625 Z M 1.78125 -9.0625 L 2.171875 -9.296875 C 3.128906 -10.035156 3.945312 -10.789062 4.625 -11.5625 L 4.75 -11.6875 C 4.78125 -11.707031 4.796875 -11.769531 4.796875 -11.875 L 4.796875 -11.953125 C 4.765625 -12.003906 4.742188 -12.054688 4.734375 -12.109375 C 4.722656 -12.160156 4.703125 -12.21875 4.671875 -12.28125 C 4.640625 -12.332031 4.609375 -12.375 4.578125 -12.40625 C 4.554688 -12.445312 4.535156 -12.492188 4.515625 -12.546875 C 4.429688 -12.703125 4.300781 -12.78125 4.125 -12.78125 C 3.988281 -12.78125 3.90625 -12.769531 3.875 -12.75 C 3.300781 -12.40625 2.820312 -11.925781 2.4375 -11.3125 C 2.050781 -10.707031 1.765625 -10.09375 1.578125 -9.46875 C 1.554688 -9.4375 1.546875 -9.34375 1.546875 -9.1875 C 1.546875 -9.15625 1.570312 -9.117188 1.625 -9.078125 C 1.675781 -9.046875 1.726562 -9.039062 1.78125 -9.0625 Z M 1.78125 -9.0625 "/></g></g></g><g fill="#251d3c" fill-opacity="1"><g transform="translate(119.423754, 37.146224)"><g><path d="M 1.03125 -4.46875 C 0.738281 -4.46875 0.472656 -4.546875 0.234375 -4.703125 C -0.00390625 -4.867188 -0.148438 -5.097656 -0.203125 -5.390625 C -0.253906 -5.546875 -0.28125 -5.6875 -0.28125 -5.8125 C -0.28125 -5.894531 -0.28125 -5.972656 -0.28125 -6.046875 C -0.28125 -6.128906 -0.28125 -6.210938 -0.28125 -6.296875 C -0.28125 -8.359375 0.207031 -10.320312 1.1875 -12.1875 C 1.238281 -12.320312 1.3125 -12.441406 1.40625 -12.546875 C 1.5 -12.648438 1.625 -12.703125 1.78125 -12.703125 L 1.90625 -12.703125 C 1.90625 -12.703125 1.929688 -12.6875 1.984375 -12.65625 C 2.035156 -12.632812 2.113281 -12.597656 2.21875 -12.546875 C 2.40625 -12.472656 2.472656 -12.316406 2.421875 -12.078125 L 2.171875 -11.09375 C 2.046875 -10.5625 1.921875 -10.046875 1.796875 -9.546875 C 1.679688 -9.046875 1.570312 -8.53125 1.46875 -8 C 1.4375 -7.84375 1.414062 -7.679688 1.40625 -7.515625 C 1.394531 -7.359375 1.375 -7.203125 1.34375 -7.046875 C 1.320312 -6.890625 1.300781 -6.726562 1.28125 -6.5625 C 1.269531 -6.40625 1.253906 -6.238281 1.234375 -6.0625 C 1.234375 -5.957031 1.285156 -5.890625 1.390625 -5.859375 C 1.460938 -5.859375 1.515625 -5.875 1.546875 -5.90625 C 1.566406 -5.925781 1.582031 -5.9375 1.59375 -5.9375 C 1.613281 -5.9375 1.632812 -5.953125 1.65625 -5.984375 C 1.6875 -6.003906 1.707031 -6.015625 1.71875 -6.015625 C 1.726562 -6.015625 1.75 -6.03125 1.78125 -6.0625 C 1.988281 -6.269531 2.191406 -6.472656 2.390625 -6.671875 C 2.585938 -6.867188 2.769531 -7.070312 2.9375 -7.28125 L 3.84375 -8.59375 L 5.3125 -11.09375 C 5.363281 -11.144531 5.414062 -11.207031 5.46875 -11.28125 C 5.519531 -11.363281 5.554688 -11.441406 5.578125 -11.515625 C 5.628906 -11.566406 5.675781 -11.632812 5.71875 -11.71875 C 5.757812 -11.800781 5.804688 -11.878906 5.859375 -11.953125 C 6.015625 -12.140625 6.171875 -12.234375 6.328125 -12.234375 C 6.460938 -12.234375 6.546875 -12.21875 6.578125 -12.1875 C 6.679688 -12.164062 6.765625 -12.109375 6.828125 -12.015625 C 6.890625 -11.921875 6.894531 -11.835938 6.84375 -11.765625 L 6.53125 -11.171875 C 6.34375 -10.878906 6.160156 -10.59375 5.984375 -10.3125 C 5.816406 -10.03125 5.644531 -9.75 5.46875 -9.46875 C 5.28125 -9.175781 5.097656 -8.875 4.921875 -8.5625 C 4.753906 -8.257812 4.578125 -7.96875 4.390625 -7.6875 C 3.835938 -6.8125 3.164062 -5.960938 2.375 -5.140625 C 2.1875 -4.984375 1.976562 -4.832031 1.75 -4.6875 C 1.53125 -4.539062 1.289062 -4.46875 1.03125 -4.46875 Z M 2.8125 -14.84375 C 2.78125 -14.875 2.726562 -14.890625 2.65625 -14.890625 C 2.601562 -14.890625 2.523438 -14.914062 2.421875 -14.96875 C 2.148438 -15.070312 2.015625 -15.28125 2.015625 -15.59375 C 2.015625 -15.9375 2.066406 -16.21875 2.171875 -16.4375 C 2.253906 -16.59375 2.398438 -16.671875 2.609375 -16.671875 C 2.828125 -16.671875 3.015625 -16.578125 3.171875 -16.390625 C 3.296875 -16.203125 3.414062 -16.046875 3.53125 -15.921875 C 3.632812 -15.785156 3.660156 -15.609375 3.609375 -15.390625 C 3.554688 -15.179688 3.460938 -15.023438 3.328125 -14.921875 C 3.171875 -14.867188 3.09375 -14.84375 3.09375 -14.84375 C 3.0625 -14.84375 3.019531 -14.84375 2.96875 -14.84375 C 2.914062 -14.84375 2.863281 -14.84375 2.8125 -14.84375 Z M 2.8125 -14.84375 "/></g></g></g><g fill="#251d3c" fill-opacity="1"><g transform="translate(124.333601, 37.146224)"><g><path d="M 1.46875 -3.796875 C 1.226562 -3.828125 1 -3.867188 0.78125 -3.921875 C 0.570312 -3.972656 0.363281 -4.066406 0.15625 -4.203125 C -0.0820312 -4.410156 -0.238281 -4.632812 -0.3125 -4.875 C -0.445312 -5.21875 -0.523438 -5.5625 -0.546875 -5.90625 C -0.578125 -6.25 -0.59375 -6.644531 -0.59375 -7.09375 C -0.507812 -8.164062 -0.3125 -9.3125 0 -10.53125 C 0.3125 -11.75 0.757812 -12.910156 1.34375 -14.015625 C 1.925781 -15.117188 2.625 -16.03125 3.4375 -16.75 C 3.8125 -17.039062 4.179688 -17.1875 4.546875 -17.1875 C 5.023438 -17.1875 5.488281 -17 5.9375 -16.625 C 6.175781 -16.46875 6.296875 -16.234375 6.296875 -15.921875 C 6.378906 -14.804688 6.15625 -13.789062 5.625 -12.875 C 5.488281 -12.65625 5.316406 -12.546875 5.109375 -12.546875 C 5.078125 -12.546875 5.050781 -12.5625 5.03125 -12.59375 C 5 -12.59375 4.976562 -12.59375 4.96875 -12.59375 C 4.957031 -12.59375 4.9375 -12.59375 4.90625 -12.59375 C 4.71875 -12.613281 4.65625 -12.707031 4.71875 -12.875 L 4.953125 -13.578125 C 5.191406 -14.367188 5.296875 -15.109375 5.265625 -15.796875 C 5.265625 -15.929688 5.25 -16.023438 5.21875 -16.078125 C 5.21875 -16.179688 5.15625 -16.234375 5.03125 -16.234375 C 5 -16.234375 4.972656 -16.21875 4.953125 -16.1875 C 4.921875 -16.164062 4.890625 -16.144531 4.859375 -16.125 C 4.835938 -16.113281 4.816406 -16.097656 4.796875 -16.078125 C 4.742188 -16.046875 4.675781 -15.992188 4.59375 -15.921875 C 3.425781 -14.410156 2.601562 -12.898438 2.125 -11.390625 C 1.65625 -9.890625 1.328125 -8.203125 1.140625 -6.328125 C 1.117188 -6.066406 1.128906 -5.8125 1.171875 -5.5625 C 1.210938 -5.3125 1.257812 -5.054688 1.3125 -4.796875 C 1.332031 -4.679688 1.394531 -4.625 1.5 -4.625 C 1.550781 -4.625 1.59375 -4.640625 1.625 -4.671875 C 1.726562 -4.722656 1.816406 -4.773438 1.890625 -4.828125 C 1.972656 -4.878906 2.054688 -4.929688 2.140625 -4.984375 C 2.929688 -5.671875 3.5625 -6.359375 4.03125 -7.046875 C 4.5625 -7.703125 5.078125 -8.359375 5.578125 -9.015625 C 6.078125 -9.679688 6.582031 -10.359375 7.09375 -11.046875 L 8.03125 -12.1875 C 8.113281 -12.269531 8.222656 -12.3125 8.359375 -12.3125 C 8.515625 -12.3125 8.601562 -12.300781 8.625 -12.28125 C 8.789062 -12.21875 8.847656 -12.109375 8.796875 -11.953125 L 8.671875 -11.71875 C 8.640625 -11.664062 8.601562 -11.601562 8.5625 -11.53125 C 8.53125 -11.46875 8.488281 -11.410156 8.4375 -11.359375 C 8.40625 -11.304688 8.367188 -11.253906 8.328125 -11.203125 C 8.296875 -11.148438 8.253906 -11.097656 8.203125 -11.046875 L 4.953125 -6.734375 C 4.660156 -6.359375 4.375 -6.003906 4.09375 -5.671875 C 3.820312 -5.347656 3.523438 -5.039062 3.203125 -4.75 C 2.960938 -4.507812 2.703125 -4.289062 2.421875 -4.09375 C 2.148438 -3.894531 1.832031 -3.796875 1.46875 -3.796875 Z M 1.46875 -3.796875 "/></g></g></g></svg>